# Blender v2.62 (sub 0) OBJ File: ''
# www.blender.org
o Sphere
v 0.000000 1.000000 0.000000
v 0.258819 0.965926 0.000000
v 0.500000 0.866025 0.000000
v 0.707107 0.707107 0.000000
v 0.866025 0.500000 0.000000
v 0.965926 0.258819 0.000000
v 0.965926 -0.258819 0.000000
v 0.500000 -0.866025 0.000000
v 0.258819 -0.965926 0.000000
v 0.224144 -0.965926 -0.129410
v 0.433013 -0.866025 -0.250000
v 0.612373 -0.707107 -0.353553
v 0.750000 -0.500000 -0.433013
v 0.836516 -0.258819 -0.482963
v 0.866025 0.000000 -0.500000
v 0.836516 0.258819 -0.482963
v 0.750000 0.500000 -0.433013
v 0.612372 0.707107 -0.353553
v 0.433013 0.866025 -0.250000
v 0.224144 0.965926 -0.129410
v 0.129410 0.965926 -0.224144
v 0.250000 0.866025 -0.433013
v 0.353553 0.707107 -0.612372
v 0.433013 0.500000 -0.750000
v 0.482963 0.258819 -0.836516
v 0.500000 0.000000 -0.866025
v 0.482963 -0.258819 -0.836516
v 0.433013 -0.500000 -0.750000
v 0.353553 -0.707107 -0.612373
v 0.250000 -0.866025 -0.433013
v 0.129410 -0.965926 -0.224144
v -0.000000 -0.965926 -0.258819
v 0.000000 -0.866025 -0.500000
v -0.000000 -0.707107 -0.707107
v -0.000000 -0.500000 -0.866025
v -0.000000 -0.258819 -0.965926
v 0.000000 0.000000 -1.000000
v -0.000000 0.258819 -0.965926
v -0.000000 0.500000 -0.866025
v 0.000000 0.707107 -0.707107
v 0.000000 0.866025 -0.500000
v 0.000000 0.965926 -0.258819
v -0.129410 0.965926 -0.224144
v -0.250000 0.866025 -0.433013
v -0.353553 0.707107 -0.612372
v -0.433013 0.500000 -0.750000
v -0.482963 0.258819 -0.836516
v -0.500000 0.000000 -0.866025
v -0.482963 -0.258819 -0.836516
v -0.433013 -0.500000 -0.750000
v -0.353553 -0.707107 -0.612373
v -0.250000 -0.866025 -0.433013
v -0.129410 -0.965926 -0.224144
v -0.224144 -0.965926 -0.129410
v -0.433013 -0.866025 -0.250000
v -0.612373 -0.707107 -0.353553
v -0.750000 -0.500000 -0.433013
v -0.836516 -0.258819 -0.482963
v -0.866025 0.000000 -0.500000
v -0.836516 0.258819 -0.482963
v -0.750000 0.500000 -0.433013
v -0.612372 0.707107 -0.353553
v -0.433013 0.866025 -0.250000
v -0.224144 0.965926 -0.129410
v -0.258819 0.965926 0.000000
v -0.500000 0.866025 0.000000
v -0.707107 0.707107 0.000000
v -0.866025 0.500000 0.000000
v -0.965926 0.258819 0.000000
v -1.000000 0.000000 0.000000
v -0.965926 -0.258819 0.000000
v -0.866025 -0.500000 0.000000
v -0.707107 -0.707107 0.000000
v -0.500000 -0.866025 0.000000
v -0.258819 -0.965926 0.000000
v -0.000000 -1.000000 0.000000
v -0.224144 -0.965926 0.129410
v -0.433013 -0.866025 0.250000
v -0.612372 -0.707107 0.353553
v -0.750000 -0.500000 0.433013
v -0.836516 -0.258819 0.482963
v -0.866025 0.000000 0.500000
v -0.836516 0.258819 0.482963
v -0.750000 0.500000 0.433013
v -0.612372 0.707107 0.353553
v -0.433013 0.866025 0.250000
v -0.224144 0.965926 0.129410
v -0.129410 0.965926 0.224144
v -0.250000 0.866025 0.433013
v -0.353553 0.707107 0.612372
v -0.433013 0.500000 0.750000
v -0.482963 0.258819 0.836516
v -0.500000 0.000000 0.866025
v -0.482963 -0.258819 0.836516
v -0.433013 -0.500000 0.750000
v -0.353553 -0.707107 0.612373
v -0.250000 -0.866025 0.433013
v -0.129410 -0.965926 0.224144
v 0.000000 -0.965926 0.258819
v 0.000000 -0.866025 0.500000
v 0.000000 -0.707107 0.707107
v 0.000000 -0.500000 0.866025
v 0.000000 -0.258819 0.965926
v 0.000000 0.000000 1.000000
v 0.000000 0.258819 0.965926
v 0.000000 0.500000 0.866025
v 0.000000 0.707107 0.707107
v 0.000000 0.866025 0.500000
v 0.000000 0.965926 0.258819
v 0.129410 0.965926 0.224144
v 0.250000 0.866025 0.433013
v 0.353553 0.707107 0.612372
v 0.433013 0.500000 0.750000
v 0.482963 0.258819 0.836516
v 0.500000 0.000000 0.866025
v 0.482963 -0.258819 0.836516
v 0.433013 -0.500000 0.750000
v 0.353553 -0.707107 0.612372
v 0.250000 -0.866025 0.433013
v 0.129410 -0.965926 0.224144
v 0.224144 -0.965926 0.129410
v 0.433013 -0.866025 0.250000
v 0.612372 -0.707107 0.353553
v 0.750000 -0.500000 0.433013
v 0.836516 -0.258819 0.482963
v 0.866025 0.000000 0.500000
v 0.836516 0.258819 0.482963
v 0.750000 0.500000 0.433013
v 0.612372 0.707107 0.353553
v 0.433013 0.866025 0.250000
v 0.224144 0.965926 0.129410
v 1.000000 0.000000 0.000000
v 0.866025 -0.500000 -0.000000
v 0.707107 -0.707107 -0.000000
vn 0.130446 -0.990839 -0.034953
vn 0.380688 -0.919060 -0.102005
vn 0.600821 -0.783005 -0.160989
vn 0.776013 -0.595456 -0.207932
vn 0.896809 -0.371470 -0.240299
vn 0.958209 -0.126151 -0.256751
vn 0.958209 0.126151 -0.256751
vn 0.896809 0.371470 -0.240299
vn 0.776013 0.595456 -0.207932
vn 0.600821 0.783005 -0.160990
vn 0.380687 0.919061 -0.102005
vn 0.130446 0.990839 -0.034953
vn 0.095493 0.990839 -0.095493
vn 0.278682 0.919061 -0.278682
vn 0.439831 0.783005 -0.439831
vn 0.568081 0.595456 -0.568081
vn 0.656510 0.371470 -0.656510
vn 0.701458 0.126151 -0.701458
vn 0.701458 -0.126151 -0.701458
vn 0.656510 -0.371470 -0.656510
vn 0.568081 -0.595456 -0.568081
vn 0.439831 -0.783005 -0.439831
vn 0.278683 -0.919060 -0.278683
vn 0.095494 -0.990839 -0.095494
vn 0.034953 -0.990839 -0.130447
vn 0.102005 -0.919060 -0.380688
vn 0.160989 -0.783005 -0.600821
vn 0.207932 -0.595456 -0.776013
vn 0.240299 -0.371470 -0.896809
vn 0.256751 -0.126151 -0.958209
vn 0.256751 0.126151 -0.958209
vn 0.240299 0.371470 -0.896809
vn 0.207932 0.595456 -0.776013
vn 0.160990 0.783005 -0.600821
vn 0.102005 0.919061 -0.380687
vn 0.034953 0.990839 -0.130446
vn -0.034953 0.990839 -0.130446
vn -0.102005 0.919061 -0.380687
vn -0.160990 0.783005 -0.600821
vn -0.207932 0.595456 -0.776013
vn -0.240299 0.371470 -0.896809
vn -0.256751 0.126151 -0.958209
vn -0.256751 -0.126151 -0.958209
vn -0.240299 -0.371470 -0.896809
vn -0.207932 -0.595456 -0.776013
vn -0.160990 -0.783005 -0.600821
vn -0.102005 -0.919060 -0.380688
vn -0.034953 -0.990839 -0.130447
vn -0.095494 -0.990839 -0.095494
vn -0.278683 -0.919060 -0.278683
vn -0.439832 -0.783005 -0.439831
vn -0.568081 -0.595456 -0.568081
vn -0.656510 -0.371470 -0.656510
vn -0.701458 -0.126151 -0.701458
vn -0.701458 0.126151 -0.701458
vn -0.656510 0.371470 -0.656510
vn -0.568081 0.595456 -0.568081
vn -0.439831 0.783005 -0.439831
vn -0.278682 0.919061 -0.278682
vn -0.095493 0.990839 -0.095493
vn -0.130446 0.990839 -0.034953
vn -0.380687 0.919061 -0.102005
vn -0.600821 0.783005 -0.160990
vn -0.776013 0.595456 -0.207932
vn -0.896809 0.371470 -0.240299
vn -0.958209 0.126151 -0.256751
vn -0.958209 -0.126151 -0.256751
vn -0.896809 -0.371470 -0.240299
vn -0.776013 -0.595456 -0.207932
vn -0.600821 -0.783005 -0.160989
vn -0.380688 -0.919060 -0.102005
vn -0.130447 -0.990839 -0.034953
vn -0.130447 -0.990839 0.034953
vn -0.380688 -0.919060 0.102005
vn -0.600821 -0.783005 0.160990
vn -0.776013 -0.595456 0.207932
vn -0.896809 -0.371470 0.240299
vn -0.958209 -0.126151 0.256751
vn -0.958209 0.126151 0.256751
vn -0.896809 0.371470 0.240299
vn -0.776013 0.595456 0.207932
vn -0.600821 0.783005 0.160990
vn -0.380687 0.919061 0.102005
vn -0.130446 0.990839 0.034953
vn -0.095493 0.990839 0.095493
vn -0.278682 0.919061 0.278682
vn -0.439831 0.783005 0.439831
vn -0.568081 0.595456 0.568081
vn -0.656510 0.371470 0.656510
vn -0.701458 0.126151 0.701458
vn -0.701458 -0.126151 0.701458
vn -0.656510 -0.371470 0.656510
vn -0.568081 -0.595456 0.568081
vn -0.439832 -0.783005 0.439832
vn -0.278683 -0.919060 0.278683
vn -0.095494 -0.990839 0.095494
vn -0.034953 -0.990839 0.130447
vn -0.102005 -0.919060 0.380688
vn -0.160989 -0.783005 0.600821
vn -0.207932 -0.595456 0.776013
vn -0.240299 -0.371470 0.896809
vn -0.256751 -0.126151 0.958209
vn -0.256751 0.126151 0.958209
vn -0.240299 0.371470 0.896809
vn -0.207932 0.595456 0.776013
vn -0.160990 0.783005 0.600821
vn -0.102005 0.919061 0.380687
vn -0.034953 0.990839 0.130446
vn 0.034953 0.990839 0.130446
vn 0.102005 0.919061 0.380687
vn 0.160990 0.783005 0.600821
vn 0.207932 0.595456 0.776013
vn 0.240299 0.371470 0.896809
vn 0.256751 0.126151 0.958209
vn 0.256751 -0.126151 0.958209
vn 0.240299 -0.371470 0.896809
vn 0.207932 -0.595456 0.776013
vn 0.160990 -0.783005 0.600821
vn 0.102005 -0.919060 0.380688
vn 0.034953 -0.990839 0.130447
vn 0.095494 -0.990839 0.095494
vn 0.278683 -0.919060 0.278683
vn 0.439832 -0.783005 0.439832
vn 0.568081 -0.595456 0.568081
vn 0.656510 -0.371470 0.656510
vn 0.701458 -0.126151 0.701458
vn 0.701458 0.126151 0.701458
vn 0.656510 0.371470 0.656510
vn 0.568081 0.595456 0.568081
vn 0.439831 0.783005 0.439831
vn 0.278682 0.919061 0.278682
vn 0.095493 0.990839 0.095493
vn 0.130446 0.990839 0.034953
vn 0.380687 0.919061 0.102005
vn 0.600821 0.783005 0.160990
vn 0.776013 0.595456 0.207932
vn 0.896809 0.371470 0.240299
vn 0.958209 0.126151 0.256751
vn 0.958209 -0.126151 0.256752
vn 0.896809 -0.371470 0.240299
vn 0.776013 -0.595456 0.207932
vn 0.600821 -0.783005 0.160990
vn 0.380688 -0.919060 0.102005
vn 0.130446 -0.990839 0.034953
s off
f 9//1 76//1 10//1
f 8//2 9//2 10//2
f 8//2 10//2 11//2
f 134//3 8//3 11//3
f 134//3 11//3 12//3
f 133//4 134//4 12//4
f 133//4 12//4 13//4
f 7//5 133//5 13//5
f 7//5 13//5 14//5
f 132//6 7//6 14//6
f 132//6 14//6 15//6
f 6//7 132//7 15//7
f 6//7 15//7 16//7
f 5//8 6//8 16//8
f 5//8 16//8 17//8
f 4//9 5//9 17//9
f 4//9 17//9 18//9
f 3//10 4//10 18//10
f 3//10 18//10 19//10
f 2//11 3//11 19//11
f 2//11 19//11 20//11
f 1//12 2//12 20//12
f 1//13 20//13 21//13
f 20//14 19//14 22//14
f 20//14 22//14 21//14
f 19//15 18//15 23//15
f 19//15 23//15 22//15
f 18//16 17//16 24//16
f 18//16 24//16 23//16
f 17//17 16//17 25//17
f 17//17 25//17 24//17
f 16//18 15//18 26//18
f 16//18 26//18 25//18
f 15//19 14//19 27//19
f 15//19 27//19 26//19
f 14//20 13//20 28//20
f 14//20 28//20 27//20
f 13//21 12//21 29//21
f 13//21 29//21 28//21
f 12//22 11//22 30//22
f 12//22 30//22 29//22
f 11//23 10//23 31//23
f 11//23 31//23 30//23
f 10//24 76//24 31//24
f 31//25 76//25 32//25
f 30//26 31//26 32//26
f 30//26 32//26 33//26
f 29//27 30//27 33//27
f 29//27 33//27 34//27
f 28//28 29//28 34//28
f 28//28 34//28 35//28
f 27//29 28//29 35//29
f 27//29 35//29 36//29
f 26//30 27//30 36//30
f 26//30 36//30 37//30
f 25//31 26//31 37//31
f 25//31 37//31 38//31
f 24//32 25//32 38//32
f 24//32 38//32 39//32
f 23//33 24//33 39//33
f 23//33 39//33 40//33
f 22//34 23//34 40//34
f 22//34 40//34 41//34
f 21//35 22//35 41//35
f 21//35 41//35 42//35
f 1//36 21//36 42//36
f 1//37 42//37 43//37
f 42//38 41//38 44//38
f 42//38 44//38 43//38
f 41//39 40//39 45//39
f 41//39 45//39 44//39
f 40//40 39//40 46//40
f 40//40 46//40 45//40
f 39//41 38//41 47//41
f 39//41 47//41 46//41
f 38//42 37//42 48//42
f 38//42 48//42 47//42
f 37//43 36//43 49//43
f 37//43 49//43 48//43
f 36//44 35//44 50//44
f 36//44 50//44 49//44
f 35//45 34//45 51//45
f 35//45 51//45 50//45
f 34//46 33//46 52//46
f 34//46 52//46 51//46
f 33//47 32//47 53//47
f 33//47 53//47 52//47
f 32//48 76//48 53//48
f 53//49 76//49 54//49
f 52//50 53//50 54//50
f 52//50 54//50 55//50
f 51//51 52//51 55//51
f 51//51 55//51 56//51
f 50//52 51//52 56//52
f 50//52 56//52 57//52
f 49//53 50//53 57//53
f 49//53 57//53 58//53
f 48//54 49//54 58//54
f 48//54 58//54 59//54
f 47//55 48//55 59//55
f 47//55 59//55 60//55
f 46//56 47//56 60//56
f 46//56 60//56 61//56
f 45//57 46//57 61//57
f 45//57 61//57 62//57
f 44//58 45//58 62//58
f 44//58 62//58 63//58
f 43//59 44//59 63//59
f 43//59 63//59 64//59
f 1//60 43//60 64//60
f 1//61 64//61 65//61
f 64//62 63//62 66//62
f 64//62 66//62 65//62
f 63//63 62//63 67//63
f 63//63 67//63 66//63
f 62//64 61//64 68//64
f 62//64 68//64 67//64
f 61//65 60//65 69//65
f 61//65 69//65 68//65
f 60//66 59//66 70//66
f 60//66 70//66 69//66
f 59//67 58//67 71//67
f 59//67 71//67 70//67
f 58//68 57//68 72//68
f 58//68 72//68 71//68
f 57//69 56//69 73//69
f 57//69 73//69 72//69
f 56//70 55//70 74//70
f 56//70 74//70 73//70
f 55//71 54//71 75//71
f 55//71 75//71 74//71
f 54//72 76//72 75//72
f 75//73 76//73 77//73
f 74//74 75//74 77//74
f 74//74 77//74 78//74
f 73//75 74//75 78//75
f 73//75 78//75 79//75
f 72//76 73//76 79//76
f 72//76 79//76 80//76
f 71//77 72//77 80//77
f 71//77 80//77 81//77
f 70//78 71//78 81//78
f 70//78 81//78 82//78
f 69//79 70//79 82//79
f 69//79 82//79 83//79
f 68//80 69//80 83//80
f 68//80 83//80 84//80
f 67//81 68//81 84//81
f 67//81 84//81 85//81
f 66//82 67//82 85//82
f 66//82 85//82 86//82
f 65//83 66//83 86//83
f 65//83 86//83 87//83
f 1//84 65//84 87//84
f 1//85 87//85 88//85
f 87//86 86//86 89//86
f 87//86 89//86 88//86
f 86//87 85//87 90//87
f 86//87 90//87 89//87
f 85//88 84//88 91//88
f 85//88 91//88 90//88
f 84//89 83//89 92//89
f 84//89 92//89 91//89
f 83//90 82//90 93//90
f 83//90 93//90 92//90
f 82//91 81//91 94//91
f 82//91 94//91 93//91
f 81//92 80//92 95//92
f 81//92 95//92 94//92
f 80//93 79//93 96//93
f 80//93 96//93 95//93
f 79//94 78//94 97//94
f 79//94 97//94 96//94
f 78//95 77//95 98//95
f 78//95 98//95 97//95
f 77//96 76//96 98//96
f 98//97 76//97 99//97
f 97//98 98//98 99//98
f 97//98 99//98 100//98
f 96//99 97//99 100//99
f 96//99 100//99 101//99
f 95//100 96//100 101//100
f 95//100 101//100 102//100
f 94//101 95//101 102//101
f 94//101 102//101 103//101
f 93//102 94//102 103//102
f 93//102 103//102 104//102
f 92//103 93//103 104//103
f 92//103 104//103 105//103
f 91//104 92//104 105//104
f 91//104 105//104 106//104
f 90//105 91//105 106//105
f 90//105 106//105 107//105
f 89//106 90//106 107//106
f 89//106 107//106 108//106
f 88//107 89//107 108//107
f 88//107 108//107 109//107
f 1//108 88//108 109//108
f 1//109 109//109 110//109
f 109//110 108//110 111//110
f 109//110 111//110 110//110
f 108//111 107//111 112//111
f 108//111 112//111 111//111
f 107//112 106//112 113//112
f 107//112 113//112 112//112
f 106//113 105//113 114//113
f 106//113 114//113 113//113
f 105//114 104//114 115//114
f 105//114 115//114 114//114
f 104//115 103//115 116//115
f 104//115 116//115 115//115
f 103//116 102//116 117//116
f 103//116 117//116 116//116
f 102//117 101//117 118//117
f 102//117 118//117 117//117
f 101//118 100//118 119//118
f 101//118 119//118 118//118
f 100//119 99//119 120//119
f 100//119 120//119 119//119
f 99//120 76//120 120//120
f 120//121 76//121 121//121
f 119//122 120//122 121//122
f 119//122 121//122 122//122
f 118//123 119//123 122//123
f 118//123 122//123 123//123
f 117//124 118//124 123//124
f 117//124 123//124 124//124
f 116//125 117//125 124//125
f 116//125 124//125 125//125
f 115//126 116//126 125//126
f 115//126 125//126 126//126
f 114//127 115//127 126//127
f 114//127 126//127 127//127
f 113//128 114//128 127//128
f 113//128 127//128 128//128
f 112//129 113//129 128//129
f 112//129 128//129 129//129
f 111//130 112//130 129//130
f 111//130 129//130 130//130
f 110//131 111//131 130//131
f 110//131 130//131 131//131
f 1//132 110//132 131//132
f 1//133 131//133 2//133
f 131//134 130//134 3//134
f 131//134 3//134 2//134
f 130//135 129//135 4//135
f 130//135 4//135 3//135
f 129//136 128//136 5//136
f 129//136 5//136 4//136
f 128//137 127//137 6//137
f 128//137 6//137 5//137
f 127//138 126//138 132//138
f 127//138 132//138 6//138
f 126//139 125//139 7//139
f 126//139 7//139 132//139
f 125//140 124//140 133//140
f 125//140 133//140 7//140
f 124//141 123//141 134//141
f 124//141 134//141 133//141
f 123//142 122//142 8//142
f 123//142 8//142 134//142
f 122//143 121//143 9//143
f 122//143 9//143 8//143
f 121//144 76//144 9//144
